<svg xmlns="http://www.w3.org/2000/svg" xmlns:xlink="http://www.w3.org/1999/xlink" width="90.678" height="90.678" viewBox="0 0 90.678 90.678">
  <defs>
    <filter id="Path_912278" x="0" y="0" width="90.678" height="90.678" filterUnits="userSpaceOnUse">
      <feOffset dy="3" input="SourceAlpha"/>
      <feGaussianBlur stdDeviation="3" result="blur"/>
      <feFlood flood-opacity="0.161"/>
      <feComposite operator="in" in2="blur"/>
      <feComposite in="SourceGraphic"/>
    </filter>
  </defs>
  <g id="Group_1114244" data-name="Group 1114244" transform="translate(-171 -5380.804)">
    <g transform="matrix(1, 0, 0, 1, 171, 5380.8)" filter="url(#Path_912278)">
      <path id="Path_912278-2" data-name="Path 912278" d="M36.339,0A36.339,36.339,0,1,1,0,36.339,36.339,36.339,0,0,1,36.339,0Z" transform="translate(9 6)" fill="#9fa3ff"/>
    </g>
    <g id="Group_1113930" data-name="Group 1113930" transform="translate(172.254 5376.269)">
      <g id="Group_1101066" data-name="Group 1101066" transform="translate(22.485 25.423)">
        <circle id="Ellipse_11579" data-name="Ellipse 11579" cx="20.76" cy="20.76" r="20.76" transform="translate(0 0)" fill="#63affa"/>
      </g>
      <path id="Path_877316" data-name="Path 877316" d="M126.557,208.52l-2.637-2.284h-5.57v1.178l1.423.8a4.594,4.594,0,0,1,2.344,4v.74a1.126,1.126,0,0,1,.861-.384,1.286,1.286,0,0,1,1,.512,5,5,0,0,0,.437.384h2.924a4.989,4.989,0,0,0,.437-.384,1.228,1.228,0,0,1,2,0,5,5,0,0,0,.437.384h2.925a4.992,4.992,0,0,0,.437-.384,1.228,1.228,0,0,1,2,0,4.988,4.988,0,0,0,.437.384h2.925a4.992,4.992,0,0,0,.437-.384,1.228,1.228,0,0,1,2,0,4.986,4.986,0,0,0,.438.384h.982l3.345-3.941v-1.01Z" transform="translate(-77.301 -141.46)" fill="#6b7292"/>
      <g id="Group_1101082" data-name="Group 1101082" transform="translate(41.049 51.321)">
        <g id="Group_1101081" data-name="Group 1101081">
          <g id="Group_1101070" data-name="Group 1101070" transform="translate(2.703)">
            <g id="Group_1101068" data-name="Group 1101068" transform="translate(2.075)">
              <g id="Group_1101067" data-name="Group 1101067">
                <path id="Path_877317" data-name="Path 877317" d="M138.5,149.506h2.511v7.9H138.5Z" transform="translate(-138.496 -149.506)" fill="#fc4a32"/>
              </g>
            </g>
            <g id="Group_1101069" data-name="Group 1101069" transform="translate(0 5.805)">
              <path id="Path_877318" data-name="Path 877318" d="M138.121,175.286a1.3,1.3,0,0,0-1.3-1.3h-5.766a1.3,1.3,0,0,0-1.3,1.3v1.385h8.375Z" transform="translate(-129.746 -173.982)" fill="#ededed"/>
              <path id="Path_877319" data-name="Path 877319" d="M129.747,185.322h8.375v5.4h-8.375Z" transform="translate(-129.747 -182.632)" fill="#6b7292"/>
            </g>
          </g>
          <g id="Group_1101080" data-name="Group 1101080" transform="translate(13.014 4.283)">
            <g id="Group_1101076" data-name="Group 1101076" transform="translate(0 4.473)">
              <g id="Group_1101073" data-name="Group 1101073">
                <g id="Group_1101072" data-name="Group 1101072">
                  <g id="Group_1101071" data-name="Group 1101071">
                    <path id="Path_877320" data-name="Path 877320" d="M173.219,186.42h6.757v4.473h-6.757Z" transform="translate(-173.219 -186.42)" fill="#f7b564"/>
                  </g>
                </g>
              </g>
              <g id="Group_1101075" data-name="Group 1101075" transform="translate(6.757)">
                <g id="Group_1101074" data-name="Group 1101074">
                  <path id="Path_877321" data-name="Path 877321" d="M201.707,186.42h6.757v4.473h-6.757Z" transform="translate(-201.707 -186.42)" fill="#f7b564"/>
                </g>
              </g>
            </g>
            <g id="Group_1101079" data-name="Group 1101079" transform="translate(3.378)">
              <g id="Group_1101078" data-name="Group 1101078">
                <g id="Group_1101077" data-name="Group 1101077">
                  <path id="Path_877322" data-name="Path 877322" d="M187.463,167.562h6.757v4.473h-6.757Z" transform="translate(-187.463 -167.562)" fill="#f7b564"/>
                </g>
              </g>
            </g>
          </g>
          <path id="Path_877323" data-name="Path 877323" d="M126.557,200.965h19.567v-3.033H127.687l-2.637-2.284h-6.7v3.033h5.57Z" transform="translate(-118.35 -184.704)" fill="#fc4a32"/>
        </g>
      </g>
      <g id="Group_1101091" data-name="Group 1101091" transform="translate(17.666 21.444)">
        <g id="Group_1101087" data-name="Group 1101087" transform="translate(0 11.051)">
          <g id="Group_1101084" data-name="Group 1101084">
            <g id="Group_1101083" data-name="Group 1101083">
              <path id="Path_877324" data-name="Path 877324" d="M34.134,74.892H27.3a1.563,1.563,0,0,1-.452-.067l-6.4-2.564a1.1,1.1,0,0,1,.676-2.092l6.407,1.594h6.6Z" transform="translate(-19.76 -70.136)" fill="#ededed"/>
            </g>
          </g>
          <circle id="Ellipse_11580" data-name="Ellipse 11580" cx="2.295" cy="2.295" r="2.295" transform="translate(4.404 3.029)" fill="#fc4a32"/>
          <g id="Group_1101086" data-name="Group 1101086" transform="translate(19.988 0)">
            <g id="Group_1101085" data-name="Group 1101085">
              <path id="Path_877325" data-name="Path 877325" d="M104.032,74.892h6.829a1.562,1.562,0,0,0,.452-.067l6.4-2.564a1.1,1.1,0,0,0-.676-2.092l-6.407,1.594h-6.6Z" transform="translate(-104.032 -70.136)" fill="#ededed"/>
            </g>
          </g>
          <circle id="Ellipse_11581" data-name="Ellipse 11581" cx="2.295" cy="2.295" r="2.295" transform="translate(25.368 2.898)" fill="#fc4a32"/>
        </g>
        <g id="Group_1101089" data-name="Group 1101089" transform="translate(8.636 7.833)">
          <g id="Group_1101088" data-name="Group 1101088">
            <path id="Path_877326" data-name="Path 877326" d="M73.261,59.2H56.173l1.315-2.629H71.946Z" transform="translate(-56.173 -56.566)" fill="#ededed"/>
          </g>
        </g>
        <path id="Path_877327" data-name="Path 877327" d="M88.171,32.845H84.538L85.2,24.6a1.155,1.155,0,0,1,2.3,0Z" transform="translate(-69.174 -23.542)" fill="#6b7292"/>
        <path id="Path_877328" data-name="Path 877328" d="M68.5,63.766V62.185a5.62,5.62,0,0,1,5.62-5.62h0a5.62,5.62,0,0,1,5.62,5.62v1.581Z" transform="translate(-56.942 -48.733)" fill="#ededed"/>
        <g id="Group_1101090" data-name="Group 1101090" transform="translate(11.561 12.277)">
          <path id="Path_877329" data-name="Path 877329" d="M76.008,77.4a3.754,3.754,0,0,1-3.77,0l-3.61-2.1a5.639,5.639,0,0,0-.124,1.175v1.581a3.754,3.754,0,0,0,3.754,3.754h3.731a3.754,3.754,0,0,0,3.754-3.754V76.478a5.639,5.639,0,0,0-.124-1.175Z" transform="translate(-68.503 -75.303)" fill="#6b7292"/>
        </g>
      </g>
      <path id="Path_877330" data-name="Path 877330" d="M81.7,67.612h4.979v1.3H81.7Z" transform="translate(-49.343 -35.715)"/>
      <path id="Path_877331" data-name="Path 877331" d="M177.5,192.171h1.3v1.745h-1.3Z" transform="translate(-122.423 -130.731)"/>
      <path id="Path_877332" data-name="Path 877332" d="M184.713,192.171h1.3v1.745h-1.3Z" transform="translate(-127.923 -130.731)"/>
      <path id="Path_877333" data-name="Path 877333" d="M191.924,192.171h1.3v1.745h-1.3Z" transform="translate(-133.424 -130.731)"/>
      <path id="Path_877334" data-name="Path 877334" d="M205.99,192.171h1.3v1.745h-1.3Z" transform="translate(-144.154 -130.731)"/>
      <path id="Path_877335" data-name="Path 877335" d="M213.2,192.171h1.3v1.745h-1.3Z" transform="translate(-149.654 -130.731)"/>
      <path id="Path_877336" data-name="Path 877336" d="M220.412,192.171h1.3v1.745h-1.3Z" transform="translate(-155.155 -130.731)"/>
      <path id="Path_877337" data-name="Path 877337" d="M191.746,173.313h1.3v1.745h-1.3Z" transform="translate(-133.288 -116.345)"/>
      <path id="Path_877338" data-name="Path 877338" d="M198.957,173.313h1.3v1.745h-1.3Z" transform="translate(-138.789 -116.345)"/>
      <path id="Path_877339" data-name="Path 877339" d="M206.168,173.313h1.3v1.745h-1.3Z" transform="translate(-144.29 -116.345)"/>
      <path id="Path_877340" data-name="Path 877340" d="M43.746,71.376a1.227,1.227,0,0,1-1.995,0,2.551,2.551,0,0,0-1.9-.874H39.2v1.3h.652a1.286,1.286,0,0,1,1,.512,2.5,2.5,0,0,0,3.8,0,1.227,1.227,0,0,1,1.995,0,2.5,2.5,0,0,0,3.8,0,1.228,1.228,0,0,1,2,0,2.5,2.5,0,0,0,3.8,0,1.228,1.228,0,0,1,2,0,2.5,2.5,0,0,0,3.8,0c.06-.058.115-.11.169-.159h0a1.1,1.1,0,0,1,.828-.354,1.286,1.286,0,0,1,1,.512,2.5,2.5,0,0,0,3.8,0,1.287,1.287,0,0,1,1-.512h.652V70.5h-.652a2.552,2.552,0,0,0-1.9.874c-.086.082-.162.155-.237.219l2.634-3.1a.652.652,0,0,0,.155-.422V64.549a.652.652,0,0,0-.652-.652H68.23V60.076a.652.652,0,0,0-.652-.652H64.851V55.6a.652.652,0,0,0-.652-.652H62.777A21.415,21.415,0,0,0,36.912,25.727l-.264-3.273a1.807,1.807,0,0,0-3.6,0l-.415,5.138q-.838.48-1.626,1.033H27.617a.652.652,0,0,0-.583.361l-1.315,2.63a.652.652,0,0,0,.583.944h.436q-.368.446-.712.912h-.5L19.191,31.9a1.754,1.754,0,0,0-1.076,3.331l3.546,1.421a2.942,2.942,0,0,0,1.014,3.585A21.415,21.415,0,0,0,42.554,67.582a3.946,3.946,0,0,1,1.61,3.176v.247a5.123,5.123,0,0,0-.419.371ZM68.171,65.2v1.207H49.5l-2.453-2.125a.652.652,0,0,0-.427-.159H41.7V62.917h5.8l2.453,2.125a.652.652,0,0,0,.427.159H68.171ZM31.042,40.433a35.721,35.721,0,0,0-.45,5.1H23.149a20.025,20.025,0,0,1,.741-4.8A2.944,2.944,0,0,0,27.308,37.9h1.5a4.429,4.429,0,0,0,2.229,2.53ZM28.34,32.7l.13-.142h.558q-.076.188-.14.382Q28.611,32.823,28.34,32.7Zm1.539,3.777V34.9q0-.057,0-.114l2.753,1.6a4.416,4.416,0,0,0,4.425,0h0l2.753-1.6q0,.057,0,.114v1.581a3.106,3.106,0,0,1-3.1,3.1H32.981a3.106,3.106,0,0,1-3.1-3.1Zm10.785-3.918h1.928v.912h-1.64A6.215,6.215,0,0,0,40.664,32.559Zm1.72,5.345a2.928,2.928,0,0,0,.208,1.007v6.62H31.9a34.519,34.519,0,0,1,.4-4.7,4.42,4.42,0,0,0,.682.053h3.731A4.413,4.413,0,0,0,40.88,37.9Zm-2.437-6.649a6.323,6.323,0,0,0-1.278-1.325h3l.662,1.325Zm2.645,15.581v8.527a40.316,40.316,0,0,0-9.079,1.153,31.9,31.9,0,0,1-1.617-9.68Zm5.474-10.1a38.831,38.831,0,0,0,4.909-.883,31.9,31.9,0,0,1,1.617,9.68H43.9V40.393a2.945,2.945,0,0,0,4.17-3.661ZM56.79,59.424H54.064a.652.652,0,0,0-.652.652v3.447q-.313.184-.632.358V60.309a23.952,23.952,0,0,0,1.008-2.226q1.56.443,3,1.009Zm.652,1.3h2.726V63.9H54.716V60.728Zm-4.466-4.213a38.448,38.448,0,0,0-3.985-.766V51.321a.652.652,0,0,0-.652-.652H45.828a.652.652,0,0,0-.652.652V55.4q-.637-.029-1.279-.039V46.835h10.7a31.9,31.9,0,0,1-1.617,9.68ZM44.4,59.164v-.733a.653.653,0,0,1,.652-.652h5.766a.653.653,0,0,1,.652.652v.733Zm7.07,1.3V63.9H50.63l-2.453-2.125a.652.652,0,0,0-.427-.159H44.4V60.468ZM46.48,56.474v-4.5h1.207v4.5ZM45.329,39.461a1.642,1.642,0,1,1,1.642-1.642A1.644,1.644,0,0,1,45.329,39.461Zm21.6,21.267V63.9H61.473V60.728h5.452Zm-3.378-4.473v3.168H58.094V56.256Zm-2.21-1.3H57.442a.652.652,0,0,0-.652.652v2.091q-1.241-.466-2.552-.842A33.286,33.286,0,0,0,55.9,46.835H63.34a19.971,19.971,0,0,1-2,8.116ZM59.022,33.732a20.006,20.006,0,0,1,4.318,11.8H55.9a33.285,33.285,0,0,0-1.66-10.018,32.372,32.372,0,0,0,4.784-1.78ZM58.149,32.7a31.613,31.613,0,0,1-4.361,1.582A23.189,23.189,0,0,0,52.3,31.177a15.409,15.409,0,0,0-3.6-4.348A20.142,20.142,0,0,1,58.149,32.7ZM43.9,26.11c2.723.277,5.285,2.283,7.273,5.72.007.012-7.273,1.641-7.273,1.641Zm.354,8.665a.652.652,0,0,0,.157-.019l6.408-1.594a.451.451,0,0,1,.513.24.449.449,0,0,1-.237.613l-3.868,1.55A2.943,2.943,0,0,0,42.647,36.6H41.115c0-.041,0-.081,0-.122V34.9c0-.041,0-.081,0-.122h3.136Zm-1.659-5.894a.651.651,0,0,0-.517-.257H37.733a8.113,8.113,0,0,1,4.859-2.515Zm-4.807-2.052q-.372.3-.733.641l-.033-.407C37.273,26.98,37.527,26.9,37.785,26.829Zm-3.44-4.27a.5.5,0,0,1,1,0l.5,6.146a6.243,6.243,0,0,0-1.994,0Zm.5,7.37a4.976,4.976,0,0,1,4.739,3.477L36.4,35.253a3.108,3.108,0,0,1-3.115,0l-3.181-1.847a4.976,4.976,0,0,1,4.739-3.477Zm-6.826,0h3a6.323,6.323,0,0,0-1.278,1.325H27.357Zm-5.551,5.635L18.6,34.015a.45.45,0,0,1-.238-.613.452.452,0,0,1,.513-.24l6.408,1.594a.652.652,0,0,0,.157.019h3.136v0c0,.04,0,.079,0,.119v1.581c0,.041,0,.081,0,.122H27.045a2.943,2.943,0,0,0-4.576-1.034Zm1.895.612a1.642,1.642,0,1,1-1.642,1.642A1.644,1.644,0,0,1,24.364,36.177Zm3.1,22.457a20.006,20.006,0,0,1-4.318-11.8h7.443a33.286,33.286,0,0,0,1.66,10.018,32.372,32.372,0,0,0-4.785,1.78Zm.873,1.031A31.609,31.609,0,0,1,32.7,58.083a23.191,23.191,0,0,0,1.489,3.106,15.409,15.409,0,0,0,3.6,4.348A20.142,20.142,0,0,1,28.34,59.665Zm12.057,2.6v3.378a12.032,12.032,0,0,1-5.078-5.108,21.814,21.814,0,0,1-1.348-2.788,39.087,39.087,0,0,1,8.622-1.08v4.946H41.05a.652.652,0,0,0-.652.652Zm2.395,3.92L41.7,65.572v-.144h4.674l2.453,2.125a.653.653,0,0,0,.427.159H68.171v.118L65.057,71.5l-.13-.123a2.5,2.5,0,0,0-3.8,0,1.574,1.574,0,0,1-.7.479h-.587a1.573,1.573,0,0,1-.7-.479,2.5,2.5,0,0,0-3.8,0,1.574,1.574,0,0,1-.7.479h-.587a1.573,1.573,0,0,1-.7-.479,2.5,2.5,0,0,0-3.8,0,1.573,1.573,0,0,1-.7.479h-.587a1.573,1.573,0,0,1-.7-.479,2.551,2.551,0,0,0-1.9-.874c-.063,0-.125,0-.185.006A5.251,5.251,0,0,0,42.792,66.185Z" transform="translate(0 0)"/>
    </g>
  </g>
</svg>
