<svg id="Group_1102050" data-name="Group 1102050" xmlns="http://www.w3.org/2000/svg" width="69.762" height="69.762" viewBox="0 0 69.762 69.762">
  <path id="Path_880167" data-name="Path 880167" d="M49.258,42.256V6.25A2.25,2.25,0,0,0,47.008,4H4.25A2.25,2.25,0,0,0,2,6.25v60.76a2.25,2.25,0,0,0,2.25,2.25H49.258Z" transform="translate(-0.875 -0.624)" fill="#5490f5"/>
  <path id="Path_880168" data-name="Path 880168" d="M13.717,64.76H49.258V6.25A2.25,2.25,0,0,0,47.008,4H4.25A2.25,2.25,0,0,0,2,6.25V53.044A11.717,11.717,0,0,0,13.717,64.76Z" transform="translate(-0.875 -0.624)" fill="#76a6f7"/>
  <path id="Path_880169" data-name="Path 880169" d="M44.256,4V42.256L37.505,62.51H15l-9-9V4Z" transform="translate(-0.374 -0.624)" fill="#eaebef"/>
  <rect id="Rectangle_401765" data-name="Rectangle 401765" width="30.682" height="27.614" rx="1" transform="translate(37.85 41.018)" fill="#ffc239"/>
  <path id="Path_880170" data-name="Path 880170" d="M63.879,38H38V52.138a9.49,9.49,0,0,0,9.492,9.491H65v-22.5A1.125,1.125,0,0,0,63.879,38Z" transform="translate(3.632 3.632)" fill="#ffd55d"/>
  <path id="Path_880171" data-name="Path 880171" d="M15,2H33V8.751H15Z" transform="translate(0.753 -0.874)" fill="#88898d"/>
  <path id="Path_880172" data-name="Path 880172" d="M6,48h9v9Z" transform="translate(-0.374 4.884)" fill="#f6f8ff"/>
  <g id="Group_1102028" data-name="Group 1102028" transform="translate(9.002 29.255)">
    <path id="Path_880173" data-name="Path 880173" d="M14.626,33.751h-4.5A1.125,1.125,0,0,1,9,32.626v-4.5A1.125,1.125,0,0,1,10.125,27h4.5a1.125,1.125,0,0,1,1.125,1.125v4.5A1.125,1.125,0,0,1,14.626,33.751ZM11.25,31.5H13.5V29.25H11.25Z" transform="translate(-9 -27)" fill="#88898d"/>
    <path id="Path_880174" data-name="Path 880174" d="M14.626,43.751h-4.5A1.125,1.125,0,0,1,9,42.626v-4.5A1.125,1.125,0,0,1,10.125,37h4.5a1.125,1.125,0,0,1,1.125,1.125v4.5A1.125,1.125,0,0,1,14.626,43.751ZM11.25,41.5H13.5V39.25H11.25Z" transform="translate(-9 -25.748)" fill="#88898d"/>
    <path id="Path_880175" data-name="Path 880175" d="M17,27H37.253v2.25H17Z" transform="translate(-7.998 -27)" fill="#88898d"/>
    <path id="Path_880176" data-name="Path 880176" d="M17,31H31.627v2.25H17Z" transform="translate(-7.998 -26.499)" fill="#88898d"/>
    <path id="Path_880177" data-name="Path 880177" d="M17,37H31.627v2.25H17Z" transform="translate(-7.998 -25.748)" fill="#88898d"/>
    <path id="Path_880178" data-name="Path 880178" d="M17,41H31.627v2.25H17Z" transform="translate(-7.998 -25.247)" fill="#88898d"/>
  </g>
  <path id="Path_880179" data-name="Path 880179" d="M44,38h9V49.252H44Z" transform="translate(4.383 3.632)" fill="#e8e4d8"/>
  <path id="Path_880180" data-name="Path 880180" d="M53,53h6.751v2.25H53Z" transform="translate(5.51 5.51)" fill="#fff"/>
  <path id="Path_880181" data-name="Path 880181" d="M49,57H60.252v2.25H49Z" transform="translate(5.009 6.011)" fill="#fff"/>
  <path id="Path_880182" data-name="Path 880182" d="M16,12H31.753V25.5H16Z" transform="translate(0.878 0.378)" fill="#ffc239"/>
  <path id="Path_880183" data-name="Path 880183" d="M18,17.87a5.381,5.381,0,0,0,5.383,5.382H31.5V12H18Z" transform="translate(1.128 0.378)" fill="#ffd55d"/>
  <path id="Path_880184" data-name="Path 880184" d="M21,12h4.5v5.626H21Z" transform="translate(1.504 0.378)" fill="#e8e4d8"/>
  <path id="Path_880185" data-name="Path 880185" d="M17,2.538A3.963,3.963,0,0,0,20.963,6.5h11.79V2H17Z" transform="translate(1.003 -0.874)" fill="#a0a1a4"/>
  <path id="Path_880186" data-name="Path 880186" d="M16.125,26.753H31.878A1.125,1.125,0,0,0,33,25.627v-13.5A1.125,1.125,0,0,0,31.878,11H16.125A1.125,1.125,0,0,0,15,12.125v13.5A1.125,1.125,0,0,0,16.125,26.753Zm6.751-13.5h2.25v3.376h-2.25Zm-5.626,0h3.376v4.5a1.125,1.125,0,0,0,1.125,1.125h4.5a1.125,1.125,0,0,0,1.125-1.125v-4.5h3.376V24.5H17.25Z" transform="translate(0.753 0.252)"/>
  <path id="Path_880187" data-name="Path 880187" d="M10.125,27A1.125,1.125,0,0,0,9,28.125v4.5a1.125,1.125,0,0,0,1.125,1.125h4.5a1.125,1.125,0,0,0,1.125-1.125v-4.5A1.125,1.125,0,0,0,14.626,27ZM13.5,31.5H11.25V29.25H13.5Z" transform="translate(0.002 2.255)"/>
  <path id="Path_880188" data-name="Path 880188" d="M14.626,37h-4.5A1.125,1.125,0,0,0,9,38.125v4.5a1.125,1.125,0,0,0,1.125,1.125h4.5a1.125,1.125,0,0,0,1.125-1.125v-4.5A1.125,1.125,0,0,0,14.626,37ZM13.5,41.5H11.25V39.25H13.5Z" transform="translate(0.002 3.507)"/>
  <path id="Path_880189" data-name="Path 880189" d="M17,27H37.253v2.25H17Z" transform="translate(1.003 2.255)"/>
  <path id="Path_880190" data-name="Path 880190" d="M17,31H31.627v2.25H17Z" transform="translate(1.003 2.756)"/>
  <path id="Path_880191" data-name="Path 880191" d="M17,37H31.627v2.25H17Z" transform="translate(1.003 3.507)"/>
  <path id="Path_880192" data-name="Path 880192" d="M17,41H31.627v2.25H17Z" transform="translate(1.003 4.008)"/>
  <path id="Path_880193" data-name="Path 880193" d="M68.511,41.507h-18V6.626A3.376,3.376,0,0,0,47.133,3.25H35.881V2.125A1.125,1.125,0,0,0,34.756,1h-18a1.125,1.125,0,0,0-1.125,1.125V3.25H4.376A3.376,3.376,0,0,0,1,6.626v60.76a3.376,3.376,0,0,0,3.376,3.376H68.511a2.25,2.25,0,0,0,2.25-2.25V43.757A2.25,2.25,0,0,0,68.511,41.507Zm-18,2.25h6.751v9H50.508ZM48.258,6.626V41.507h-2.25V5.5h1.125A1.125,1.125,0,0,1,48.258,6.626ZM17.878,3.25H33.63v4.5H17.878ZM16.753,10h18a1.125,1.125,0,0,0,1.125-1.125V5.5h7.876V41.507h-4.5a2.25,2.25,0,0,0-2.25,2.25v18H16.753V53.884a1.125,1.125,0,0,0-1.125-1.125H7.751V5.5h7.876V8.876A1.125,1.125,0,0,0,16.753,10ZM14.5,60.169l-5.16-5.16H14.5ZM4.376,68.511A1.125,1.125,0,0,1,3.25,67.386V6.626A1.125,1.125,0,0,1,4.376,5.5H5.5V53.884a1.125,1.125,0,0,0,.33.8l9,9a1.125,1.125,0,0,0,.8.33H37.006v4.5Zm34.881,0V43.757h9V53.884a1.125,1.125,0,0,0,1.125,1.125h9a1.125,1.125,0,0,0,1.125-1.125V43.757h9V68.511Z" transform="translate(-1 -1)"/>
  <path id="Path_880194" data-name="Path 880194" d="M53,53h6.751v2.25H53Z" transform="translate(5.51 5.51)"/>
  <path id="Path_880195" data-name="Path 880195" d="M49,57H60.252v2.25H49Z" transform="translate(5.009 6.011)"/>
</svg>
